<svg id="svg" version="1.1"
    xmlns="http://www.w3.org/2000/svg"
    xmlns:xlink="http://www.w3.org/1999/xlink" width="400" height="200" viewBox="0, 0, 400,200">
    <g id="svgg">
        <path id="path0" d="M200.335 63.332 C 200.261 63.406,200.200 65.649,200.200 68.317 C 200.200 70.985,200.145 73.310,200.079 73.484 C 199.972 73.761,199.317 73.800,194.782 73.800 L 189.607 73.800 189.553 79.050 L 189.500 84.300 168.547 84.351 L 147.593 84.402 147.647 89.451 L 147.700 94.500 189.500 94.500 L 231.300 94.500 231.300 78.900 L 231.300 63.300 215.885 63.249 C 207.406 63.221,200.409 63.258,200.335 63.332 M231.100 73.800 L 231.100 84.100 210.500 84.100 L 189.900 84.100 189.847 79.050 L 189.793 74.000 194.857 74.000 C 198.528 74.000,199.986 73.934,200.160 73.760 C 200.334 73.586,200.400 72.159,200.400 68.593 C 200.400 65.884,200.461 63.606,200.535 63.532 C 200.609 63.458,207.516 63.421,215.885 63.449 L 231.100 63.500 231.100 73.800 M10.894 105.644 C 10.840 105.785,10.819 110.445,10.848 116.000 L 10.900 126.100 15.900 126.100 L 20.900 126.100 20.953 120.950 L 21.007 115.800 26.307 115.800 L 31.607 115.800 31.553 121.050 L 31.500 126.300 26.400 126.400 L 21.300 126.500 21.247 131.517 L 21.193 136.534 36.947 136.667 C 45.611 136.740,88.181 136.800,131.547 136.800 L 210.393 136.800 210.447 131.550 L 210.500 126.300 215.750 126.247 L 221.000 126.193 221.000 120.997 L 221.000 115.800 273.284 115.800 C 302.040 115.800,325.710 115.745,325.884 115.679 C 326.391 115.484,326.358 105.920,325.850 105.671 C 325.233 105.369,11.010 105.342,10.894 105.644 M105.153 110.650 L 105.100 115.700 79.100 115.716 C 62.894 115.726,53.006 115.661,52.850 115.542 C 52.581 115.336,52.470 105.997,52.733 105.733 C 52.807 105.660,64.643 105.600,79.037 105.600 L 105.207 105.600 105.153 110.650 M342.250 105.752 L 337.000 105.807 337.000 110.682 C 337.000 114.943,337.040 115.572,337.316 115.679 C 337.728 115.837,388.160 115.832,388.750 115.674 L 389.200 115.553 389.200 110.677 L 389.200 105.800 384.350 105.807 C 381.683 105.811,372.300 105.788,363.500 105.756 C 354.700 105.724,345.138 105.722,342.250 105.752 M52.679 116.116 C 52.861 116.591,52.819 125.861,52.633 126.153 C 52.508 126.350,51.302 126.395,47.286 126.353 L 42.100 126.300 42.046 121.304 C 42.017 118.556,42.037 116.193,42.090 116.054 C 42.252 115.631,52.516 115.691,52.679 116.116 M73.700 121.100 L 73.700 126.300 68.514 126.353 C 64.498 126.395,63.292 126.350,63.167 126.153 C 62.980 125.860,62.940 116.590,63.123 116.113 C 63.231 115.830,63.837 115.799,68.473 115.847 L 73.700 115.900 73.700 121.100 M94.700 121.100 L 94.700 126.300 89.500 126.300 L 84.300 126.300 84.246 121.304 C 84.217 118.556,84.237 116.192,84.291 116.050 C 84.369 115.848,85.492 115.805,89.545 115.847 L 94.700 115.900 94.700 121.100 M115.753 121.050 L 115.700 126.300 110.500 126.300 L 105.300 126.300 105.246 121.304 C 105.217 118.556,105.237 116.193,105.290 116.054 C 105.365 115.858,106.574 115.800,110.597 115.800 L 115.807 115.800 115.753 121.050 M136.956 120.700 C 136.987 123.340,136.963 125.704,136.902 125.953 L 136.791 126.407 131.545 126.353 L 126.300 126.300 126.246 121.304 C 126.217 118.556,126.237 116.192,126.291 116.050 C 126.369 115.848,127.511 115.805,131.645 115.847 L 136.900 115.900 136.956 120.700 M157.900 121.100 L 157.900 126.300 152.714 126.353 C 148.698 126.395,147.492 126.350,147.367 126.153 C 147.180 125.860,147.140 116.590,147.323 116.113 C 147.431 115.830,148.037 115.799,152.673 115.847 L 157.900 115.900 157.900 121.100 M178.953 121.050 L 178.900 126.300 173.700 126.300 L 168.500 126.300 168.447 121.050 L 168.393 115.800 173.700 115.800 L 179.007 115.800 178.953 121.050 M221.153 131.550 L 221.100 136.700 215.850 136.753 L 210.600 136.807 210.600 141.993 L 210.600 147.180 211.750 147.240 L 212.900 147.300 213.000 157.800 L 213.100 168.300 219.700 168.300 L 226.300 168.300 226.354 164.050 L 226.408 159.800 221.754 159.797 C 219.194 159.795,216.986 159.722,216.847 159.633 C 216.650 159.508,216.606 158.122,216.647 153.386 L 216.700 147.300 218.582 147.242 C 221.031 147.167,220.882 146.894,221.000 151.659 L 221.100 155.700 223.700 155.700 L 226.300 155.700 226.410 151.500 C 226.471 149.190,226.538 147.274,226.560 147.243 C 226.582 147.212,227.523 147.212,228.650 147.243 L 230.700 147.300 230.800 157.800 L 230.900 168.300 288.900 168.256 C 320.800 168.232,349.263 168.162,352.150 168.100 L 357.400 167.987 357.400 163.008 C 357.400 156.721,356.720 157.400,363.014 157.400 L 368.000 157.400 368.000 152.516 C 368.000 149.830,368.055 147.490,368.121 147.316 C 368.228 147.040,368.864 147.000,373.197 147.000 C 376.918 147.000,378.202 146.938,378.355 146.750 C 378.485 146.590,378.584 142.882,378.629 136.500 L 378.700 126.500 299.953 126.450 L 221.207 126.399 221.153 131.550 M252.679 137.116 C 252.861 137.591,252.819 146.861,252.633 147.153 C 252.508 147.350,251.302 147.395,247.286 147.353 L 242.100 147.300 242.046 142.304 C 242.017 139.556,242.037 137.193,242.090 137.054 C 242.252 136.631,252.516 136.691,252.679 137.116 M273.700 142.100 L 273.700 147.300 268.400 147.300 L 263.100 147.300 263.046 142.304 C 263.017 139.556,263.037 137.192,263.091 137.050 C 263.169 136.848,264.311 136.805,268.445 136.847 L 273.700 136.900 273.700 142.100 M294.700 142.100 L 294.700 147.300 289.450 147.353 L 284.200 147.407 284.200 142.100 L 284.200 136.793 289.450 136.847 L 294.700 136.900 294.700 142.100 M315.800 142.103 L 315.800 147.407 310.550 147.353 L 305.300 147.300 305.246 142.304 C 305.217 139.556,305.237 137.193,305.290 137.054 C 305.365 136.858,306.574 136.800,310.594 136.800 L 315.800 136.800 315.800 142.103 M336.900 142.100 L 336.900 147.300 331.600 147.300 L 326.300 147.300 326.246 142.304 C 326.217 139.556,326.237 137.192,326.291 137.050 C 326.369 136.848,327.511 136.805,331.645 136.847 L 336.900 136.900 336.900 142.100 M357.900 142.100 L 357.900 147.300 352.714 147.353 C 348.698 147.395,347.492 147.350,347.367 147.153 C 347.180 146.860,347.140 137.590,347.323 137.113 C 347.431 136.830,348.037 136.799,352.673 136.847 L 357.900 136.900 357.900 142.100 M221.000 142.083 L 221.000 146.966 218.650 147.093 C 215.389 147.269,213.512 147.271,212.050 147.099 L 210.800 146.952 210.800 142.076 L 210.800 137.200 215.900 137.200 L 221.000 137.200 221.000 142.083 M42.400 157.767 L 42.400 168.134 65.950 168.267 C 78.903 168.340,105.181 168.400,124.346 168.400 L 159.192 168.400 159.302 167.950 C 159.362 167.703,159.386 163.000,159.355 157.500 L 159.300 147.500 100.850 147.450 L 42.400 147.399 42.400 157.767 M165.400 155.295 L 165.400 163.200 169.102 163.200 L 172.805 163.200 172.752 155.350 L 172.700 147.500 169.050 147.445 L 165.400 147.391 165.400 155.295 M178.892 147.650 C 178.839 147.787,178.819 152.490,178.848 158.100 L 178.900 168.300 188.650 168.352 L 198.400 168.404 198.403 167.152 C 198.408 164.804,197.912 165.015,203.572 164.953 L 208.500 164.900 208.556 162.350 L 208.612 159.800 203.820 159.800 C 199.731 159.800,198.983 159.754,198.714 159.486 C 198.443 159.214,198.400 158.370,198.400 153.286 L 198.400 147.400 188.694 147.400 C 181.113 147.400,178.966 147.455,178.892 147.650 M136.754 152.690 C 136.793 156.377,136.872 157.722,137.054 157.837 C 137.189 157.923,141.914 157.995,147.553 157.997 L 157.807 158.000 157.753 163.050 L 157.700 168.100 136.800 168.100 L 115.900 168.100 115.800 163.000 L 115.700 157.900 100.000 157.800 L 84.300 157.700 84.246 152.904 C 84.217 150.266,84.237 147.993,84.290 147.853 C 84.369 147.648,89.510 147.608,110.544 147.649 L 136.700 147.700 136.754 152.690 M202.933 151.333 C 202.860 151.407,202.800 152.395,202.800 153.530 C 202.800 155.993,202.578 155.843,206.100 155.758 L 208.500 155.700 208.557 153.450 L 208.613 151.200 205.840 151.200 C 204.315 151.200,203.007 151.260,202.933 151.333 M194.793 156.387 C 195.137 157.029,195.056 160.115,194.686 160.486 C 194.305 160.866,183.081 160.964,182.387 160.593 C 181.921 160.344,181.798 156.682,182.240 156.240 C 182.708 155.772,194.538 155.911,194.793 156.387 M326.153 163.050 L 326.100 168.100 305.200 168.100 L 284.300 168.100 284.246 163.304 C 284.217 160.666,284.236 158.394,284.290 158.254 C 284.368 158.051,288.580 158.000,305.297 158.000 L 326.207 158.000 326.153 163.050 M84.533 179.133 C 84.460 179.207,84.400 181.487,84.400 184.200 L 84.400 189.134 123.550 189.267 C 168.288 189.419,213.110 189.400,230.200 189.222 L 241.900 189.100 241.956 184.500 C 241.987 181.970,241.963 179.697,241.903 179.450 L 241.792 179.000 163.230 179.000 C 120.020 179.000,84.607 179.060,84.533 179.133 M220.953 184.150 L 220.900 189.100 178.900 189.100 L 136.900 189.100 136.846 184.404 C 136.817 181.821,136.836 179.594,136.890 179.454 C 136.968 179.250,145.209 179.200,178.997 179.200 L 221.007 179.200 220.953 184.150 " stroke="none" fill="#5c5c5c" fill-rule="evenodd"></path>
        <path id="path1" d="M199.896 63.250 C 199.738 63.686,199.693 73.600,199.850 73.600 C 199.933 73.600,200.000 71.259,200.000 68.399 L 200.000 63.198 215.750 63.249 L 231.500 63.300 231.500 78.900 L 231.500 94.500 189.447 94.550 L 147.393 94.601 147.447 89.450 L 147.500 84.300 168.450 84.249 C 179.972 84.221,189.400 84.131,189.400 84.049 C 189.400 83.792,147.777 83.970,147.465 84.229 C 147.246 84.410,147.204 85.456,147.247 89.577 L 147.300 94.700 189.388 94.750 C 222.926 94.791,231.508 94.750,231.635 94.550 C 231.819 94.261,231.861 63.792,231.679 63.316 C 231.515 62.891,200.051 62.825,199.896 63.250 M10.492 105.450 C 10.439 105.588,10.419 110.335,10.448 116.000 L 10.500 126.300 15.700 126.400 L 20.900 126.500 20.953 131.750 L 21.007 137.000 31.503 137.000 C 39.743 137.000,42.010 137.054,42.045 137.250 C 42.070 137.388,42.093 144.475,42.095 153.000 L 42.100 168.500 57.850 168.551 L 73.600 168.602 73.603 173.351 C 73.604 175.963,73.660 178.303,73.726 178.550 L 73.847 179.000 78.920 179.000 L 83.993 179.000 84.047 184.250 L 84.100 189.500 163.147 189.550 L 242.193 189.601 242.247 184.350 L 242.300 179.100 289.590 179.050 C 320.982 179.016,336.947 179.067,337.080 179.200 C 337.451 179.571,346.934 179.461,347.079 179.084 C 347.145 178.910,347.200 176.489,347.200 173.705 C 347.200 169.273,347.239 168.628,347.516 168.521 C 347.690 168.455,350.065 168.400,352.793 168.400 L 357.753 168.400 357.874 167.950 C 357.940 167.703,357.996 165.363,357.997 162.750 L 358.000 158.000 362.750 157.997 C 365.363 157.996,367.701 157.941,367.947 157.875 C 368.392 157.755,368.393 157.744,368.447 152.628 L 368.500 147.500 373.650 147.447 C 376.483 147.417,378.820 147.372,378.845 147.347 C 378.871 147.321,378.938 142.620,378.995 136.900 L 379.100 126.500 384.100 126.388 C 386.850 126.326,389.123 126.258,389.150 126.238 C 389.178 126.217,389.200 123.910,389.200 121.112 C 389.200 117.935,389.275 115.977,389.400 115.900 C 389.525 115.823,389.600 113.833,389.600 110.592 L 389.600 105.408 389.075 105.276 C 388.787 105.204,376.884 105.216,362.625 105.303 C 348.366 105.390,334.405 105.446,331.600 105.427 C 328.795 105.409,276.730 105.372,215.900 105.346 L 105.300 105.299 215.757 105.399 C 313.650 105.489,326.236 105.534,326.406 105.800 C 326.519 105.976,326.578 108.127,326.549 111.000 L 326.500 115.900 273.950 115.950 L 221.400 116.001 221.400 121.000 L 221.400 125.999 300.050 126.050 L 378.700 126.100 378.752 136.377 C 378.789 143.725,378.740 146.731,378.580 146.924 C 378.406 147.134,377.248 147.205,373.328 147.247 L 368.300 147.300 368.200 152.400 L 368.100 157.500 363.066 157.600 C 360.298 157.655,357.958 157.775,357.866 157.866 C 357.775 157.958,357.655 160.298,357.600 163.066 L 357.500 168.100 352.400 168.240 C 336.380 168.678,312.369 168.804,272.800 168.657 L 230.700 168.500 230.648 157.943 L 230.596 147.386 228.648 147.443 L 226.700 147.500 226.646 151.650 L 226.592 155.800 223.700 155.800 L 220.808 155.800 220.754 151.650 L 220.700 147.500 218.747 147.443 L 216.794 147.385 216.847 153.443 L 216.900 159.500 221.754 159.554 L 226.608 159.607 226.554 164.054 L 226.500 168.500 219.813 168.553 C 214.597 168.594,213.092 168.550,212.967 168.353 C 212.878 168.214,212.805 163.442,212.803 157.750 L 212.800 147.400 211.740 147.400 C 210.154 147.400,210.200 147.559,210.200 142.060 L 210.200 137.201 126.350 137.104 C 80.233 137.050,37.708 136.958,31.850 136.900 L 21.200 136.793 21.200 131.813 C 21.200 129.074,21.145 126.690,21.079 126.516 C 20.972 126.239,20.316 126.200,15.779 126.200 L 10.600 126.200 10.600 115.801 L 10.600 105.402 31.650 105.350 L 52.700 105.298 31.644 105.249 C 14.947 105.210,10.568 105.252,10.492 105.450 M384.450 105.606 L 389.400 105.600 389.400 110.576 C 389.400 114.521,389.344 115.598,389.129 115.776 C 388.930 115.941,381.885 115.988,362.779 115.951 L 336.700 115.900 336.700 110.800 L 336.700 105.700 342.100 105.597 C 345.070 105.541,354.700 105.521,363.500 105.554 C 372.300 105.586,381.728 105.609,384.450 105.606 M21.400 121.000 L 21.400 126.007 26.350 125.953 L 31.300 125.900 31.300 121.000 L 31.300 116.100 26.350 116.047 L 21.400 115.993 21.400 121.000 M42.400 120.997 L 42.400 126.000 47.403 126.000 L 52.407 126.000 52.353 121.050 L 52.300 116.100 47.350 116.047 L 42.400 115.993 42.400 120.997 M63.537 116.130 C 63.462 116.205,63.400 118.457,63.400 121.133 L 63.400 126.000 68.403 126.000 L 73.407 126.000 73.353 121.050 L 73.300 116.100 68.487 116.047 C 65.840 116.017,63.612 116.055,63.537 116.130 M84.624 116.271 C 84.460 116.469,84.408 117.910,84.446 121.225 L 84.500 125.900 89.454 125.954 L 94.407 126.007 94.354 121.054 L 94.300 116.100 89.577 116.046 C 85.736 116.003,84.812 116.045,84.624 116.271 M105.600 121.000 L 105.600 126.007 110.550 125.953 L 115.500 125.900 115.500 121.000 L 115.500 116.100 110.550 116.047 L 105.600 115.993 105.600 121.000 M126.600 120.997 L 126.600 126.000 131.603 126.000 L 136.607 126.000 136.553 121.050 L 136.500 116.100 131.550 116.047 L 126.600 115.993 126.600 120.997 M147.733 116.133 C 147.660 116.207,147.600 118.457,147.600 121.133 L 147.600 126.000 152.600 126.000 L 157.600 126.000 157.600 121.000 L 157.600 116.000 152.733 116.000 C 150.057 116.000,147.807 116.060,147.733 116.133 M168.690 116.254 C 168.636 116.394,168.617 118.621,168.646 121.204 L 168.700 125.900 173.650 125.953 L 178.600 126.007 178.600 121.003 L 178.600 116.000 173.694 116.000 C 169.911 116.000,168.765 116.058,168.690 116.254 M210.800 131.600 L 210.800 136.600 215.800 136.600 L 220.800 136.600 220.800 131.600 L 220.800 126.600 215.800 126.600 L 210.800 126.600 210.800 131.600 M242.447 142.150 L 242.500 147.100 247.400 147.100 L 252.300 147.100 252.353 142.150 L 252.407 137.200 247.400 137.200 L 242.393 137.200 242.447 142.150 M263.447 142.150 L 263.500 147.100 268.400 147.100 L 273.300 147.100 273.353 142.150 L 273.407 137.200 268.400 137.200 L 263.393 137.200 263.447 142.150 M284.533 137.333 C 284.249 137.617,284.383 146.737,284.675 146.979 C 284.868 147.139,286.344 147.191,289.625 147.154 L 294.300 147.100 294.353 142.150 L 294.407 137.200 289.537 137.200 C 286.858 137.200,284.607 137.260,284.533 137.333 M305.646 142.146 L 305.700 147.100 310.423 147.154 C 314.264 147.197,315.188 147.155,315.376 146.929 C 315.540 146.731,315.592 145.290,315.554 141.975 L 315.500 137.300 310.546 137.246 L 305.593 137.193 305.646 142.146 M326.647 142.150 L 326.700 147.100 331.600 147.100 L 336.500 147.100 336.553 142.150 L 336.607 137.200 331.600 137.200 L 326.593 137.200 326.647 142.150 M347.647 142.150 L 347.700 147.100 352.600 147.100 L 357.500 147.100 357.553 142.150 L 357.607 137.200 352.600 137.200 L 347.593 137.200 347.647 142.150 M142.750 147.133 L 159.400 147.266 159.400 157.917 L 159.400 168.568 158.050 168.715 C 156.768 168.854,121.633 168.758,67.048 168.467 L 42.196 168.335 42.248 157.817 L 42.300 147.300 63.100 147.199 C 100.062 147.018,125.729 146.997,142.750 147.133 M173.000 155.300 L 173.000 163.400 169.100 163.400 L 165.200 163.400 165.200 155.300 L 165.200 147.200 169.100 147.200 L 173.000 147.200 173.000 155.300 M198.647 153.350 L 198.700 159.500 203.750 159.553 L 208.800 159.607 208.800 162.303 L 208.800 165.000 203.940 165.000 C 198.281 165.000,198.600 164.878,198.600 167.040 L 198.600 168.600 188.721 168.600 C 179.898 168.600,178.830 168.566,178.721 168.284 C 178.555 167.850,178.567 147.500,178.733 147.333 C 178.807 147.260,183.305 147.200,188.730 147.200 L 198.594 147.200 198.647 153.350 M165.048 155.450 L 165.100 163.500 169.100 163.500 L 173.100 163.500 173.152 155.450 L 173.205 147.400 175.802 147.400 L 178.400 147.400 178.400 157.900 C 178.400 163.675,178.400 168.468,178.400 168.550 C 178.400 168.633,174.192 168.700,169.050 168.700 L 159.700 168.700 159.648 158.300 C 159.619 152.580,159.639 147.787,159.692 147.650 C 159.762 147.468,160.493 147.400,162.391 147.400 L 164.995 147.400 165.048 155.450 M212.478 147.612 C 212.540 147.673,212.597 152.443,212.605 158.212 L 212.621 168.700 205.760 168.700 L 198.900 168.700 198.900 167.000 L 198.900 165.300 203.955 165.247 L 209.011 165.193 208.955 162.347 L 208.900 159.500 203.900 159.400 L 198.900 159.300 198.847 153.603 C 198.818 150.469,198.841 147.782,198.899 147.631 C 199.005 147.353,212.201 147.335,212.478 147.612 M220.646 151.750 L 220.700 155.900 223.700 155.900 L 226.700 155.900 226.754 151.750 L 226.808 147.600 228.604 147.600 L 230.400 147.600 230.400 158.208 L 230.400 168.816 228.650 168.758 L 226.900 168.700 226.800 164.100 L 226.700 159.500 221.850 159.446 L 217.000 159.393 217.000 153.496 L 217.000 147.600 218.796 147.600 L 220.592 147.600 220.646 151.750 M202.610 151.182 C 202.364 151.640,202.330 155.381,202.568 155.755 C 202.691 155.949,203.481 155.997,205.815 155.955 L 208.900 155.900 208.900 153.400 L 208.900 150.900 205.860 150.845 C 203.014 150.793,202.806 150.815,202.610 151.182 M208.756 153.455 L 208.813 155.810 205.756 155.755 L 202.700 155.700 202.641 153.800 C 202.547 150.757,202.295 150.980,205.755 151.045 L 208.700 151.100 208.756 153.455 M182.287 156.462 C 182.230 156.609,182.210 157.578,182.242 158.615 L 182.300 160.500 188.500 160.500 L 194.700 160.500 194.700 158.400 L 194.700 156.300 188.545 156.247 C 183.549 156.204,182.370 156.245,182.287 156.462 M194.500 158.400 L 194.500 160.300 188.500 160.300 L 182.500 160.300 182.443 158.347 L 182.385 156.394 188.443 156.447 L 194.500 156.500 194.500 158.400 M241.953 184.050 L 242.007 189.400 163.103 189.400 L 84.200 189.400 84.200 184.240 C 84.200 180.490,84.266 179.014,84.440 178.840 C 84.627 178.653,102.314 178.611,163.290 178.650 L 241.900 178.700 241.953 184.050 " stroke="none" fill="#2c2c2c" fill-rule="evenodd"></path>
        <path id="path2" d="M210.000 26.000 L 210.000 52.000 204.940 52.000 C 201.271 52.000,199.814 52.066,199.640 52.240 C 199.466 52.414,199.400 53.871,199.400 57.540 L 199.400 62.600 194.307 62.600 C 188.127 62.600,188.800 61.917,188.800 68.187 L 188.800 73.000 163.050 73.003 C 142.693 73.005,137.195 73.059,136.800 73.259 L 136.300 73.512 136.248 83.856 L 136.196 94.200 115.798 94.200 L 95.400 94.200 95.400 89.287 C 95.400 86.283,95.320 84.223,95.193 83.987 C 94.936 83.507,31.718 83.362,31.240 83.840 C 31.066 84.014,31.000 85.471,31.000 89.140 L 31.000 94.200 15.500 94.200 L 0.000 94.200 0.000 115.800 L 0.000 137.400 10.200 137.400 L 20.400 137.400 20.400 142.097 L 20.400 146.793 15.250 146.847 L 10.100 146.900 10.048 163.000 C 10.000 177.959,10.020 179.118,10.336 179.350 C 10.772 179.670,20.623 179.709,21.213 179.393 C 21.580 179.197,21.600 178.924,21.600 174.093 L 21.600 169.000 26.300 169.000 L 31.000 169.000 31.000 174.093 C 31.000 178.924,31.020 179.197,31.387 179.393 C 31.646 179.532,38.560 179.600,52.387 179.600 L 73.000 179.600 73.000 184.413 C 73.000 190.683,72.327 190.000,78.507 190.000 L 83.600 190.000 83.600 195.000 L 83.600 200.000 163.200 200.000 L 242.800 200.000 242.800 194.989 L 242.800 189.978 268.750 190.095 C 283.022 190.160,304.285 190.142,316.000 190.056 L 337.300 189.900 337.353 184.729 L 337.407 179.558 347.774 179.705 L 358.140 179.853 358.470 179.382 C 358.755 178.976,358.800 178.243,358.800 174.055 L 358.800 169.200 363.760 169.200 C 367.351 169.200,368.786 169.134,368.960 168.960 C 369.134 168.786,369.200 167.351,369.200 163.760 L 369.200 158.800 374.100 158.800 C 380.446 158.800,379.800 159.446,379.800 153.100 L 379.800 148.200 384.795 148.200 L 389.791 148.200 390.102 147.725 C 390.429 147.226,390.429 146.675,390.094 131.950 L 389.986 127.200 394.993 127.200 L 400.000 127.200 400.000 110.700 L 400.000 94.200 352.900 94.200 L 305.800 94.200 305.800 89.140 C 305.800 85.471,305.734 84.014,305.560 83.840 C 305.375 83.655,298.107 83.600,274.060 83.600 L 242.800 83.600 242.800 41.800 L 242.800 0.000 236.900 0.000 L 231.000 0.000 231.000 26.000 L 231.000 52.000 226.300 52.000 L 221.600 52.000 221.600 26.000 L 221.600 0.000 215.800 0.000 L 210.000 0.000 210.000 26.000 M231.679 63.316 C 231.861 63.792,231.819 94.261,231.635 94.550 C 231.508 94.750,222.926 94.791,189.388 94.750 L 147.300 94.700 147.247 89.577 C 147.204 85.446,147.246 84.411,147.466 84.228 C 147.664 84.064,153.416 83.988,168.519 83.951 L 189.300 83.900 189.353 78.753 L 189.407 73.607 194.553 73.553 L 199.700 73.500 199.751 68.500 C 199.779 65.750,199.844 63.388,199.895 63.250 C 200.052 62.825,231.515 62.891,231.679 63.316 M331.600 105.427 C 334.405 105.446,348.366 105.390,362.625 105.303 C 376.884 105.216,388.787 105.204,389.075 105.276 L 389.600 105.408 389.600 110.592 C 389.600 113.833,389.525 115.823,389.400 115.900 C 389.275 115.977,389.200 117.935,389.200 121.112 C 389.200 123.910,389.178 126.217,389.150 126.238 C 389.123 126.258,386.850 126.326,384.100 126.388 L 379.100 126.500 378.995 136.900 C 378.938 142.620,378.871 147.321,378.845 147.347 C 378.820 147.372,376.483 147.417,373.650 147.447 L 368.500 147.500 368.447 152.628 C 368.393 157.744,368.392 157.755,367.947 157.875 C 367.701 157.941,365.363 157.996,362.750 157.997 L 358.000 158.000 357.997 162.750 C 357.996 165.363,357.940 167.703,357.874 167.950 L 357.753 168.400 352.793 168.400 C 350.065 168.400,347.690 168.455,347.516 168.521 C 347.239 168.628,347.200 169.273,347.200 173.705 C 347.200 176.489,347.145 178.910,347.079 179.084 C 346.934 179.461,337.451 179.571,337.080 179.200 C 336.947 179.067,320.982 179.016,289.590 179.050 L 242.300 179.100 242.247 184.350 L 242.193 189.601 163.147 189.550 L 84.100 189.500 84.047 184.250 L 83.993 179.000 78.920 179.000 L 73.847 179.000 73.726 178.550 C 73.660 178.303,73.604 175.963,73.603 173.351 L 73.600 168.602 57.850 168.551 L 42.100 168.500 42.095 153.000 C 42.093 144.475,42.070 137.388,42.045 137.250 C 42.010 137.054,39.743 137.000,31.503 137.000 L 21.007 137.000 20.953 131.750 L 20.900 126.500 15.700 126.400 L 10.500 126.300 10.448 116.000 C 10.419 110.335,10.439 105.587,10.492 105.450 C 10.572 105.240,300.495 105.220,331.600 105.427 M159.692 147.650 C 159.639 147.787,159.619 152.580,159.648 158.300 L 159.700 168.700 169.050 168.700 C 174.192 168.700,178.400 168.633,178.400 168.550 C 178.400 168.468,178.400 163.675,178.400 157.900 L 178.400 147.400 175.802 147.400 L 173.205 147.400 173.152 155.450 L 173.100 163.500 169.100 163.500 L 165.100 163.500 165.048 155.450 L 164.995 147.400 162.391 147.400 C 160.493 147.400,159.762 147.468,159.692 147.650 M198.899 147.631 C 198.841 147.782,198.818 150.469,198.847 153.603 L 198.900 159.300 203.900 159.400 L 208.900 159.500 208.955 162.347 L 209.011 165.193 203.955 165.247 L 198.900 165.300 198.900 167.000 L 198.900 168.700 205.760 168.700 L 212.621 168.700 212.605 158.212 C 212.597 152.443,212.540 147.673,212.478 147.612 C 212.201 147.335,199.005 147.353,198.899 147.631 M217.000 153.496 L 217.000 159.393 221.850 159.446 L 226.700 159.500 226.800 164.100 L 226.900 168.700 228.650 168.758 L 230.400 168.816 230.400 158.208 L 230.400 147.600 228.604 147.600 L 226.808 147.600 226.754 151.750 L 226.700 155.900 223.700 155.900 L 220.700 155.900 220.646 151.750 L 220.592 147.600 218.796 147.600 L 217.000 147.600 217.000 153.496 M31.000 152.600 L 31.000 157.200 26.300 157.200 L 21.600 157.200 21.600 152.600 L 21.600 148.000 26.300 148.000 L 31.000 148.000 31.000 152.600 M208.900 153.400 L 208.900 155.900 205.815 155.955 C 202.177 156.021,202.407 156.184,202.403 153.537 C 202.399 150.647,202.229 150.779,205.860 150.845 L 208.900 150.900 208.900 153.400 M182.443 158.347 L 182.500 160.300 188.500 160.300 L 194.500 160.300 194.500 158.400 L 194.500 156.500 188.443 156.447 L 182.385 156.394 182.443 158.347 M297.335 189.950 C 292.954 189.980,285.844 189.980,281.535 189.950 C 277.226 189.920,280.810 189.895,289.500 189.895 C 298.190 189.895,301.716 189.920,297.335 189.950 " stroke="none" fill="#040404" fill-rule="evenodd"></path>
        <path id="path3" d="M200.535 63.532 C 200.461 63.606,200.400 65.884,200.400 68.593 C 200.400 72.159,200.334 73.586,200.160 73.760 C 199.986 73.934,198.528 74.000,194.857 74.000 L 189.793 74.000 189.847 79.050 L 189.900 84.100 210.500 84.100 L 231.100 84.100 231.100 73.800 L 231.100 63.500 215.885 63.449 C 207.516 63.421,200.609 63.458,200.535 63.532 M52.733 105.733 C 52.470 105.997,52.581 115.336,52.850 115.542 C 53.006 115.661,62.894 115.726,79.100 115.716 L 105.100 115.700 105.153 110.650 L 105.207 105.600 79.037 105.600 C 64.643 105.600,52.807 105.660,52.733 105.733 M210.800 142.076 L 210.800 146.952 212.050 147.099 C 213.512 147.271,215.389 147.269,218.650 147.093 L 221.000 146.966 221.000 142.083 L 221.000 137.200 215.900 137.200 L 210.800 137.200 210.800 142.076 M84.290 147.853 C 84.237 147.993,84.217 150.266,84.246 152.904 L 84.300 157.700 100.000 157.800 L 115.700 157.900 115.800 163.000 L 115.900 168.100 136.800 168.100 L 157.700 168.100 157.753 163.050 L 157.807 158.000 147.553 157.997 C 141.914 157.995,137.189 157.923,137.054 157.837 C 136.872 157.722,136.793 156.377,136.754 152.690 L 136.700 147.700 110.544 147.649 C 89.510 147.608,84.369 147.648,84.290 147.853 M284.290 158.254 C 284.236 158.394,284.217 160.666,284.246 163.304 L 284.300 168.100 305.200 168.100 L 326.100 168.100 326.153 163.050 L 326.207 158.000 305.297 158.000 C 288.580 158.000,284.368 158.051,284.290 158.254 M136.890 179.454 C 136.836 179.594,136.817 181.821,136.846 184.404 L 136.900 189.100 178.900 189.100 L 220.900 189.100 220.953 184.150 L 221.007 179.200 178.997 179.200 C 145.209 179.200,136.968 179.250,136.890 179.454 " stroke="none" fill="#6c6c6c" fill-rule="evenodd"></path>
        <path id="path4" d="M200.042 68.350 C 200.083 73.487,200.151 72.894,200.249 66.550 C 200.277 64.707,200.233 63.200,200.150 63.200 C 200.067 63.200,200.019 65.517,200.042 68.350 M231.300 78.900 C 231.300 87.514,231.368 94.520,231.450 94.469 C 231.532 94.418,231.600 87.412,231.600 78.900 C 231.600 70.388,231.532 63.382,231.450 63.331 C 231.368 63.280,231.300 70.286,231.300 78.900 M192.238 73.749 C 193.634 73.784,195.974 73.784,197.438 73.750 C 198.902 73.715,197.760 73.687,194.900 73.687 C 192.040 73.687,190.842 73.715,192.238 73.749 M189.446 79.049 L 189.400 84.198 168.450 84.249 L 147.500 84.300 147.447 89.450 C 147.417 92.283,147.462 94.600,147.547 94.600 C 147.631 94.600,147.675 92.305,147.643 89.500 L 147.587 84.400 168.500 84.400 C 185.204 84.400,189.432 84.349,189.510 84.146 C 189.563 84.007,189.581 81.644,189.550 78.896 L 189.493 73.900 189.446 79.049 M65.750 105.350 C 73.038 105.379,84.963 105.379,92.250 105.350 C 99.538 105.321,93.575 105.297,79.000 105.297 C 64.425 105.297,58.463 105.321,65.750 105.350 M10.600 115.800 C 10.600 121.520,10.668 126.200,10.750 126.200 C 10.833 126.200,10.900 121.520,10.900 115.800 C 10.900 110.080,10.833 105.400,10.750 105.400 C 10.668 105.400,10.600 110.080,10.600 115.800 M320.700 105.602 C 323.670 105.665,326.123 105.735,326.150 105.758 C 326.416 105.980,326.158 115.573,325.884 115.679 C 325.710 115.745,302.040 115.800,273.284 115.800 L 221.000 115.800 221.000 120.997 L 221.000 126.193 215.750 126.247 L 210.500 126.300 210.447 131.569 L 210.393 136.837 115.747 136.769 C 63.691 136.731,25.915 136.769,31.800 136.854 C 37.685 136.939,80.233 137.051,126.350 137.104 L 210.200 137.201 210.200 142.060 C 210.200 147.559,210.154 147.400,211.740 147.400 L 212.800 147.400 212.803 157.750 C 212.805 163.442,212.878 168.214,212.967 168.353 C 213.092 168.550,214.597 168.594,219.813 168.553 L 226.500 168.500 226.554 164.054 L 226.608 159.607 221.754 159.554 L 216.900 159.500 216.847 153.437 L 216.794 147.373 218.788 147.437 C 219.885 147.471,220.710 147.429,220.623 147.342 C 220.536 147.255,219.617 147.210,218.582 147.242 L 216.700 147.300 216.647 153.386 C 216.606 158.122,216.650 159.508,216.847 159.633 C 216.986 159.722,219.194 159.795,221.754 159.797 L 226.408 159.800 226.354 164.050 L 226.300 168.300 219.700 168.300 L 213.100 168.300 213.000 157.800 L 212.900 147.300 211.750 147.240 L 210.600 147.180 210.600 141.993 L 210.600 136.807 215.850 136.753 L 221.100 136.700 221.153 131.549 L 221.207 126.399 300.003 126.449 C 352.468 126.483,378.778 126.433,378.733 126.300 C 378.689 126.167,352.233 126.083,300.033 126.050 L 221.400 125.999 221.400 121.000 L 221.400 116.001 273.950 115.950 L 326.500 115.900 326.553 110.968 C 326.621 104.706,327.352 105.389,320.636 105.444 L 315.300 105.487 320.700 105.602 M342.100 105.597 L 336.700 105.700 336.700 110.800 L 336.700 115.900 362.779 115.951 C 381.885 115.988,388.930 115.941,389.129 115.776 C 389.344 115.598,389.400 114.521,389.400 110.576 L 389.400 105.600 384.450 105.606 C 381.728 105.609,372.300 105.586,363.500 105.554 C 354.700 105.521,345.070 105.541,342.100 105.597 M384.350 105.807 L 389.200 105.800 389.200 110.677 L 389.200 115.553 388.750 115.674 C 388.160 115.832,337.728 115.837,337.316 115.679 C 337.040 115.572,337.000 114.943,337.000 110.682 L 337.000 105.807 342.250 105.752 C 345.138 105.722,354.700 105.724,363.500 105.756 C 372.300 105.788,381.683 105.811,384.350 105.807 M20.956 121.020 C 20.925 123.890,20.945 126.298,21.000 126.370 C 21.055 126.441,23.440 126.455,26.300 126.400 L 31.500 126.300 31.553 121.050 L 31.607 115.800 26.310 115.800 L 21.013 115.800 20.956 121.020 M42.090 116.054 C 42.037 116.193,42.017 118.556,42.046 121.304 L 42.100 126.300 47.286 126.353 C 51.302 126.395,52.508 126.350,52.633 126.153 C 52.819 125.861,52.861 116.591,52.679 116.116 C 52.516 115.691,42.252 115.631,42.090 116.054 M63.123 116.113 C 62.940 116.590,62.980 125.860,63.167 126.153 C 63.292 126.350,64.498 126.395,68.514 126.353 L 73.700 126.300 73.700 121.100 L 73.700 115.900 68.473 115.847 C 63.837 115.799,63.231 115.830,63.123 116.113 M84.291 116.050 C 84.237 116.192,84.217 118.556,84.246 121.304 L 84.300 126.300 89.500 126.300 L 94.700 126.300 94.700 121.100 L 94.700 115.900 89.545 115.847 C 85.492 115.805,84.369 115.848,84.291 116.050 M105.290 116.054 C 105.237 116.193,105.217 118.556,105.246 121.304 L 105.300 126.300 110.500 126.300 L 115.700 126.300 115.753 121.050 L 115.807 115.800 110.597 115.800 C 106.574 115.800,105.365 115.858,105.290 116.054 M126.291 116.050 C 126.237 116.192,126.217 118.556,126.246 121.304 L 126.300 126.300 131.545 126.353 L 136.791 126.407 136.902 125.953 C 136.963 125.704,136.987 123.340,136.956 120.700 L 136.900 115.900 131.645 115.847 C 127.511 115.805,126.369 115.848,126.291 116.050 M147.323 116.113 C 147.140 116.590,147.180 125.860,147.367 126.153 C 147.492 126.350,148.698 126.395,152.714 126.353 L 157.900 126.300 157.900 121.100 L 157.900 115.900 152.673 115.847 C 148.037 115.799,147.431 115.830,147.323 116.113 M168.447 121.050 L 168.500 126.300 173.700 126.300 L 178.900 126.300 178.953 121.050 L 179.007 115.800 173.700 115.800 L 168.393 115.800 168.447 121.050 M31.300 121.000 L 31.300 125.900 26.350 125.953 L 21.400 126.007 21.400 121.000 L 21.400 115.993 26.350 116.047 L 31.300 116.100 31.300 121.000 M52.353 121.050 L 52.407 126.000 47.403 126.000 L 42.400 126.000 42.400 120.997 L 42.400 115.993 47.350 116.047 L 52.300 116.100 52.353 121.050 M73.353 121.050 L 73.407 126.000 68.403 126.000 L 63.400 126.000 63.400 121.133 C 63.400 118.457,63.462 116.205,63.537 116.130 C 63.612 116.055,65.840 116.017,68.487 116.047 L 73.300 116.100 73.353 121.050 M94.354 121.054 L 94.407 126.007 89.454 125.954 L 84.500 125.900 84.446 121.225 C 84.408 117.910,84.460 116.469,84.624 116.271 C 84.812 116.045,85.736 116.003,89.577 116.046 L 94.300 116.100 94.354 121.054 M115.500 121.000 L 115.500 125.900 110.550 125.953 L 105.600 126.007 105.600 121.000 L 105.600 115.993 110.550 116.047 L 115.500 116.100 115.500 121.000 M136.553 121.050 L 136.607 126.000 131.603 126.000 L 126.600 126.000 126.600 120.997 L 126.600 115.993 131.550 116.047 L 136.500 116.100 136.553 121.050 M157.600 121.000 L 157.600 126.000 152.600 126.000 L 147.600 126.000 147.600 121.133 C 147.600 118.457,147.660 116.207,147.733 116.133 C 147.807 116.060,150.057 116.000,152.733 116.000 L 157.600 116.000 157.600 121.000 M178.600 121.003 L 178.600 126.007 173.650 125.953 L 168.700 125.900 168.646 121.204 C 168.617 118.621,168.636 116.394,168.690 116.254 C 168.765 116.058,169.911 116.000,173.694 116.000 L 178.600 116.000 178.600 121.003 M220.800 131.600 L 220.800 136.600 215.800 136.600 L 210.800 136.600 210.800 131.600 L 210.800 126.600 215.800 126.600 L 220.800 126.600 220.800 131.600 M378.646 141.410 C 378.613 145.063,378.532 146.588,378.360 146.760 C 378.186 146.934,376.756 147.000,373.181 147.000 C 368.863 147.000,368.228 147.040,368.121 147.316 C 368.055 147.490,368.000 149.830,368.000 152.516 L 368.000 157.400 363.014 157.400 C 356.720 157.400,357.400 156.721,357.400 163.008 L 357.400 167.987 352.150 168.100 C 349.263 168.162,320.800 168.232,288.900 168.256 L 230.900 168.300 230.800 157.800 L 230.700 147.300 228.650 147.243 C 227.523 147.212,226.583 147.212,226.562 147.243 C 226.439 147.426,226.326 155.801,226.446 155.800 C 226.526 155.800,226.616 153.933,226.646 151.650 L 226.700 147.500 228.648 147.443 L 230.596 147.386 230.648 157.943 L 230.700 168.500 272.800 168.657 C 312.369 168.804,336.380 168.678,352.400 168.240 L 357.500 168.100 357.600 163.066 C 357.655 160.298,357.775 157.958,357.866 157.866 C 357.958 157.775,360.298 157.655,363.066 157.600 L 368.100 157.500 368.200 152.400 L 368.300 147.300 373.328 147.247 C 377.266 147.205,378.405 147.134,378.582 146.922 C 378.739 146.732,378.790 145.094,378.750 141.475 L 378.693 136.300 378.646 141.410 M242.090 137.054 C 242.037 137.193,242.017 139.556,242.046 142.304 L 242.100 147.300 247.286 147.353 C 251.302 147.395,252.508 147.350,252.633 147.153 C 252.819 146.861,252.861 137.591,252.679 137.116 C 252.516 136.691,242.252 136.631,242.090 137.054 M263.091 137.050 C 263.037 137.192,263.017 139.556,263.046 142.304 L 263.100 147.300 268.400 147.300 L 273.700 147.300 273.700 142.100 L 273.700 136.900 268.445 136.847 C 264.311 136.805,263.169 136.848,263.091 137.050 M284.200 142.100 L 284.200 147.407 289.450 147.353 L 294.700 147.300 294.700 142.100 L 294.700 136.900 289.450 136.847 L 284.200 136.793 284.200 142.100 M305.290 137.054 C 305.237 137.193,305.217 139.556,305.246 142.304 L 305.300 147.300 310.550 147.353 L 315.800 147.407 315.800 142.103 L 315.800 136.800 310.594 136.800 C 306.574 136.800,305.365 136.858,305.290 137.054 M326.291 137.050 C 326.237 137.192,326.217 139.556,326.246 142.304 L 326.300 147.300 331.600 147.300 L 336.900 147.300 336.900 142.100 L 336.900 136.900 331.645 136.847 C 327.511 136.805,326.369 136.848,326.291 137.050 M347.323 137.113 C 347.140 137.590,347.180 146.860,347.367 147.153 C 347.492 147.350,348.698 147.395,352.714 147.353 L 357.900 147.300 357.900 142.100 L 357.900 136.900 352.673 136.847 C 348.037 136.799,347.431 136.830,347.323 137.113 M252.353 142.150 L 252.300 147.100 247.400 147.100 L 242.500 147.100 242.447 142.150 L 242.393 137.200 247.400 137.200 L 252.407 137.200 252.353 142.150 M273.353 142.150 L 273.300 147.100 268.400 147.100 L 263.500 147.100 263.447 142.150 L 263.393 137.200 268.400 137.200 L 273.407 137.200 273.353 142.150 M294.353 142.150 L 294.300 147.100 289.625 147.154 C 286.344 147.191,284.868 147.139,284.675 146.979 C 284.383 146.737,284.249 137.617,284.533 137.333 C 284.607 137.260,286.858 137.200,289.537 137.200 L 294.407 137.200 294.353 142.150 M315.554 141.975 C 315.592 145.290,315.540 146.731,315.376 146.929 C 315.188 147.155,314.264 147.197,310.423 147.154 L 305.700 147.100 305.646 142.146 L 305.593 137.193 310.546 137.246 L 315.500 137.300 315.554 141.975 M336.553 142.150 L 336.500 147.100 331.600 147.100 L 326.700 147.100 326.647 142.150 L 326.593 137.200 331.600 137.200 L 336.607 137.200 336.553 142.150 M357.553 142.150 L 357.500 147.100 352.600 147.100 L 347.700 147.100 347.647 142.150 L 347.593 137.200 352.600 137.200 L 357.607 137.200 357.553 142.150 M63.100 147.199 L 42.300 147.300 42.248 157.817 L 42.196 168.335 67.048 168.467 C 153.375 168.928,159.416 168.912,159.384 168.234 C 159.374 168.026,159.330 167.994,159.268 168.150 C 159.152 168.437,107.525 168.502,65.950 168.267 L 42.400 168.134 42.400 157.766 L 42.400 147.399 100.900 147.449 C 133.075 147.477,159.400 147.447,159.400 147.383 C 159.400 147.045,112.855 146.956,63.100 147.199 M165.200 155.300 L 165.200 163.400 169.100 163.400 L 173.000 163.400 173.000 155.300 L 173.000 147.200 169.100 147.200 L 165.200 147.200 165.200 155.300 M178.733 147.333 C 178.567 147.500,178.555 167.850,178.721 168.284 C 178.830 168.566,179.898 168.600,188.721 168.600 L 198.600 168.600 198.560 167.050 L 198.521 165.500 198.451 166.952 L 198.382 168.404 188.641 168.352 L 178.900 168.300 178.900 157.900 L 178.900 147.500 188.647 147.448 L 198.394 147.396 198.450 153.348 L 198.506 159.300 198.553 153.250 L 198.600 147.200 188.733 147.200 C 183.307 147.200,178.807 147.260,178.733 147.333 M172.752 155.350 L 172.805 163.200 169.102 163.200 L 165.400 163.200 165.400 155.295 L 165.400 147.391 169.050 147.445 L 172.700 147.500 172.752 155.350 M220.840 151.750 C 220.818 153.978,220.868 155.800,220.950 155.800 C 221.032 155.801,221.077 154.608,221.048 153.150 C 220.950 148.173,220.880 147.697,220.840 151.750 M202.697 151.445 C 202.454 152.415,202.683 155.663,203.000 155.749 C 203.230 155.811,203.240 155.788,203.043 155.649 C 202.854 155.516,202.801 154.909,202.843 153.384 L 202.900 151.300 205.762 151.244 L 208.624 151.189 208.562 153.495 C 208.528 154.763,208.570 155.801,208.656 155.800 C 208.742 155.800,208.787 154.743,208.756 153.450 L 208.700 151.100 205.755 151.045 C 202.837 150.990,202.809 150.993,202.697 151.445 M182.240 156.240 C 181.974 156.506,181.893 160.310,182.150 160.469 C 182.233 160.521,182.300 159.603,182.300 158.431 L 182.300 156.300 188.531 156.300 C 191.958 156.300,194.720 156.233,194.669 156.150 C 194.504 155.882,182.511 155.969,182.240 156.240 M194.872 158.400 C 194.872 159.445,194.906 159.873,194.947 159.350 C 194.988 158.828,194.988 157.972,194.947 157.450 C 194.906 156.928,194.872 157.355,194.872 158.400 M203.761 159.750 L 208.622 159.807 208.561 162.404 C 208.527 163.832,208.568 165.001,208.650 165.000 C 208.732 165.000,208.800 163.785,208.800 162.300 L 208.800 159.600 203.850 159.646 L 198.900 159.693 203.761 159.750 M185.562 160.750 C 187.247 160.783,189.947 160.783,191.562 160.750 C 193.178 160.716,191.800 160.689,188.500 160.689 C 185.200 160.689,183.878 160.716,185.562 160.750 M84.440 178.840 C 84.266 179.014,84.200 180.490,84.200 184.240 L 84.200 189.400 110.450 189.351 L 136.700 189.301 110.547 189.250 L 84.393 189.199 84.447 184.149 L 84.500 179.100 163.088 179.050 C 225.821 179.010,241.711 179.050,241.849 179.250 C 241.967 179.421,242.001 179.374,241.958 179.100 C 241.880 178.608,84.931 178.349,84.440 178.840 M231.500 189.200 L 221.100 189.305 231.550 189.353 C 238.415 189.384,242.000 189.331,242.000 189.200 C 242.000 189.090,241.978 189.021,241.950 189.047 C 241.923 189.073,237.220 189.142,231.500 189.200 M281.535 189.950 C 285.844 189.980,292.954 189.980,297.335 189.950 C 301.716 189.920,298.190 189.895,289.500 189.895 C 280.810 189.895,277.226 189.920,281.535 189.950 " stroke="none" fill="#3c3c3c" fill-rule="evenodd"></path>
    </g>
</svg>