<?xml version="1.0" standalone="no"?>
<!DOCTYPE svg PUBLIC "-//W3C//DTD SVG 20010904//EN"
 "http://www.w3.org/TR/2001/REC-SVG-20010904/DTD/svg10.dtd">
<svg version="1.0" xmlns="http://www.w3.org/2000/svg"
 width="800.000000pt" height="600.000000pt" viewBox="0 0 800.000000 600.000000"
 preserveAspectRatio="xMidYMid meet">

<g transform="translate(0.000000,600.000000) scale(0.100000,-0.100000)"
fill="#000000" stroke="none">
<path d="M3794 5796 l-34 -34 0 -236 0 -235 -32 -5 c-18 -3 -82 -13 -143 -22
-244 -35 -507 -120 -749 -241 -71 -35 -134 -62 -141 -59 -7 2 -116 115 -242
250 -236 255 -255 270 -310 249 -26 -9 -419 -368 -427 -390 -3 -8 -6 -30 -6
-48 0 -37 -18 -16 282 -338 l158 -168 -76 -87 c-104 -120 -242 -330 -319 -486
-56 -115 -134 -329 -165 -453 l-10 -42 -220 -3 -220 -3 -27 -28 -28 -27 0
-250 0 -250 28 -27 27 -28 220 -3 220 -3 10 -42 c31 -124 109 -338 165 -453
77 -156 215 -366 319 -486 l76 -87 -158 -168 c-300 -322 -282 -301 -282 -338
0 -18 3 -40 6 -48 8 -22 401 -381 427 -390 55 -21 74 -6 310 249 126 135 235
248 242 250 7 3 70 -24 141 -59 242 -121 505 -206 749 -241 61 -9 125 -19 143
-22 l32 -5 0 -235 0 -236 34 -34 34 -34 187 0 187 0 34 34 34 34 0 236 c0 130
1 236 3 236 1 0 61 9 133 19 292 43 563 131 820 265 l102 53 222 -241 c122
-133 234 -249 249 -258 33 -23 70 -23 101 -1 42 29 398 363 404 379 3 9 6 31
6 49 0 38 1 37 -265 324 -88 95 -161 176 -163 180 -1 5 32 48 74 97 98 115
215 290 287 430 85 168 135 300 187 502 l11 42 215 0 216 0 34 34 34 34 0 242
0 242 -34 34 -34 34 -216 0 -215 0 -11 43 c-52 201 -102 333 -187 501 -72 140
-189 315 -287 430 -42 49 -75 92 -74 97 2 4 75 85 163 180 266 287 265 286
265 324 0 18 -3 40 -6 49 -6 16 -362 350 -404 379 -31 22 -68 22 -101 -1 -15
-9 -127 -125 -249 -258 l-222 -241 -102 53 c-257 134 -528 222 -820 265 -72
10 -132 19 -133 19 -2 0 -3 106 -3 236 l0 236 -34 34 -34 34 -187 0 -187 0
-34 -34z"/>
</g>
</svg>
