<svg xmlns="http://www.w3.org/2000/svg" xmlns:xlink="http://www.w3.org/1999/xlink" version="1.1" width="1000" height="1000" viewBox="0 0 1000 1000" xml:space="preserve">
<desc>Created with Fabric.js 3.5.0</desc>
<defs>
</defs>
<g transform="matrix(-2.2727 0 0 2.2727 499.9945 499.9987)" id="929442">
<g style="" vector-effect="non-scaling-stroke">
		<g transform="matrix(1 0 0 1 -162.1665 -0.0248)" id="path0">
<path style="stroke: none; stroke-width: 1; stroke-dasharray: none; stroke-linecap: butt; stroke-dashoffset: 0; stroke-linejoin: miter; stroke-miterlimit: 4; is-custom-font: none; font-file-url: none; fill: rgb(252,124,0); fill-rule: evenodd; opacity: 1;" transform=" translate(-37.8335, -47.5)" d="M 27.8 0.958 L 27.75 1.917 L 26.841 1.968 C 26.341 1.997 25.774 1.935 25.581 1.832 C 25.388 1.729 24.897 1.668 24.49 1.697 L 23.75 1.75 L 23.667 2.833 L 23.583 3.917 L 22.667 3.872 C 22.162 3.848 21.3 3.81 20.75 3.789 L 19.75 3.75 L 19.701 4.783 L 19.651 5.816 L 18.784 5.867 L 17.917 5.917 L 17.833 6.833 L 17.75 7.75 L 16.833 7.833 L 15.917 7.917 L 15.867 8.875 L 15.817 9.833 L 15.089 9.833 C 13.931 9.833 13.833 9.918 13.833 10.926 L 13.833 11.817 L 12.875 11.867 L 11.917 11.917 L 11.867 12.875 L 11.817 13.833 L 10.926 13.833 C 9.917 13.833 9.833 13.93 9.833 15.097 L 9.833 15.833 L 8.925 15.833 L 8.017 15.833 L 7.967 16.792 L 7.917 17.75 L 6.917 17.833 L 5.917 17.917 L 5.867 18.784 L 5.816 19.651 L 4.783 19.701 L 3.75 19.75 L 3.805 21.708 L 3.86 23.667 L 2.744 23.667 L 1.628 23.667 L 1.742 24.792 C 1.804 25.41 1.869 26.292 1.886 26.75 L 1.917 27.583 L 0.958 27.633 L 0 27.683 L 0 47.508 L 0 67.333 L 0.937 67.333 L 1.873 67.333 L 1.753 69.417 L 1.633 71.5 L 2.748 71.5 L 3.863 71.5 L 3.745 73.458 L 3.628 75.417 L 4.639 75.361 L 5.649 75.305 L 5.7 76.277 L 5.75 77.25 L 6.75 77.333 L 7.75 77.417 L 7.8 78.375 L 7.85 79.333 L 8.758 79.333 L 9.667 79.333 L 9.667 80.232 C 9.667 81.262 9.754 81.333 11.014 81.333 L 11.833 81.333 L 11.833 82.242 L 11.833 83.15 L 12.792 83.2 L 13.75 83.25 L 13.8 84.2 L 13.849 85.151 L 14.8 85.2 L 15.75 85.25 L 15.8 86.208 L 15.85 87.167 L 16.75 87.167 L 17.65 87.167 L 17.7 88.125 L 17.75 89.083 L 18.708 89.133 L 19.667 89.183 L 19.667 90.277 L 19.667 91.37 L 21.667 91.25 L 23.667 91.13 L 23.667 92.246 L 23.667 93.363 L 25.667 93.243 L 27.667 93.124 L 27.667 94.062 L 27.667 95 L 51.667 95 L 75.667 95 L 75.667 47.5 L 75.667 0 L 51.758 0 L 27.85 0 L 27.8 0.958" stroke-linecap="round"/>
</g>
		<g transform="matrix(1 0 0 1 -112.8335 -0.0248)" id="path1">
<path style="stroke: none; stroke-width: 1; stroke-dasharray: none; stroke-linecap: butt; stroke-dashoffset: 0; stroke-linejoin: miter; stroke-miterlimit: 4; is-custom-font: none; font-file-url: none; fill: rgb(4,4,4); fill-rule: evenodd; opacity: 1;" transform=" translate(-87.1665, -47.5)" d="M 75.833 47.5 L 75.833 95 L 87.167 95 L 98.5 95 L 98.5 47.5 L 98.5 0 L 87.167 0 L 75.833 0 L 75.833 47.5" stroke-linecap="round"/>
</g>
		<g transform="matrix(1 0 0 1 49.25 -0.0248)" id="path2">
<path style="stroke: none; stroke-width: 1; stroke-dasharray: none; stroke-linecap: butt; stroke-dashoffset: 0; stroke-linejoin: miter; stroke-miterlimit: 4; is-custom-font: none; font-file-url: none; fill: rgb(80, 80, 80); fill-rule: evenodd; opacity: 1;" transform=" translate(-249.25, -47.5)" d="M 98.5 47.5 L 98.5 95 L 194.667 95 L 290.833 95 L 290.833 90.168 L 290.833 85.335 L 303.208 85.293 L 315.583 85.25 L 315.628 80.375 L 315.672 75.5 L 326.253 75.5 L 336.833 75.5 L 336.833 73 L 336.833 70.5 L 339.833 70.5 L 342.833 70.5 L 342.833 68.25 L 342.833 66 L 353 66 L 363.167 66 L 363.167 68 L 363.167 70 L 365.833 70 L 368.5 70 L 368.5 82.5 L 368.5 95 L 384.25 95 L 400 95 L 400 47.5 L 400 0 L 384.25 0 L 368.5 0 L 368.5 12.5 L 368.5 25 L 365.833 25 L 363.167 25 L 363.167 27 L 363.167 29 L 353 29 L 342.833 29 L 342.833 26.75 L 342.833 24.5 L 339.833 24.5 L 336.833 24.5 L 336.833 22 L 336.833 19.5 L 326.253 19.5 L 315.672 19.5 L 315.628 14.625 L 315.583 9.75 L 303.208 9.707 L 290.833 9.665 L 290.833 4.832 L 290.833 0 L 194.667 0 L 98.5 0 L 98.5 47.5 M 390.833 26.75 L 390.833 44.833 L 389.083 44.833 L 387.333 44.833 L 387.333 27.25 L 387.333 9.667 L 383.167 9.667 L 379 9.667 L 379 27.25 L 379 44.833 L 378.5 44.833 L 378 44.833 L 378 26.75 L 378 8.667 L 384.417 8.667 L 390.833 8.667 L 390.833 26.75 M 381.5 67.75 L 381.5 85.333 L 385.667 85.333 L 389.833 85.333 L 389.833 67.75 L 389.833 50.167 L 390.333 50.167 L 390.833 50.167 L 390.833 68.25 L 390.833 86.333 L 384.417 86.333 L 378 86.333 L 378 68.25 L 378 50.167 L 379.75 50.167 L 381.5 50.167 L 381.5 67.75" stroke-linecap="round"/>
</g>
		<g transform="matrix(1 0 0 1 -186.075 -0.0248)" id="path3">
<path style="stroke: none; stroke-width: 1; stroke-dasharray: none; stroke-linecap: butt; stroke-dashoffset: 0; stroke-linejoin: miter; stroke-miterlimit: 4; is-custom-font: none; font-file-url: none; fill: rgb(212,128,44); fill-rule: evenodd; opacity: 1;" transform=" translate(-13.925, -47.5)" d="M 25.533 0.958 L 25.583 1.917 L 26.667 1.917 L 27.75 1.917 L 27.8 0.958 L 27.85 0 L 26.667 0 L 25.483 0 L 25.533 0.958 M 21.611 1.778 C 21.55 1.839 21.5 2.286 21.5 2.772 C 21.5 3.814 21.77 4.048 22.881 3.968 L 23.583 3.917 L 23.667 2.792 L 23.75 1.666 L 22.736 1.667 C 22.178 1.667 21.672 1.717 21.611 1.778 M 17.605 4.042 C 17.55 4.248 17.504 4.698 17.502 5.042 L 17.5 5.667 L 16.583 5.667 L 15.667 5.667 L 15.667 6.667 L 15.667 7.667 L 14.667 7.667 L 13.667 7.667 L 13.667 8.667 L 13.667 9.667 L 12.667 9.667 L 11.667 9.667 L 11.667 10.667 L 11.667 11.667 L 10.667 11.667 L 9.667 11.667 L 9.667 12.667 L 9.667 13.667 L 8.667 13.667 L 7.667 13.667 L 7.667 14.667 L 7.667 15.667 L 6.667 15.667 L 5.667 15.667 L 5.667 16.575 L 5.667 17.483 L 4.708 17.533 L 3.75 17.583 L 3.701 18.667 L 3.653 19.75 L 4.735 19.694 L 5.817 19.639 L 5.867 18.778 L 5.917 17.917 L 6.917 17.833 L 7.917 17.75 L 7.967 16.792 L 8.017 15.833 L 8.925 15.833 L 9.833 15.833 L 9.833 15.097 C 9.833 13.93 9.917 13.833 10.926 13.833 L 11.817 13.833 L 11.867 12.875 L 11.917 11.917 L 12.875 11.867 L 13.833 11.817 L 13.833 10.926 C 13.833 9.918 13.931 9.833 15.089 9.833 L 15.817 9.833 L 15.867 8.875 L 15.917 7.917 L 16.833 7.833 L 17.75 7.75 L 17.833 6.833 L 17.917 5.917 L 18.778 5.867 L 19.639 5.817 L 19.694 4.741 L 19.75 3.666 L 18.728 3.666 C 17.809 3.667 17.695 3.705 17.605 4.042 M 1.771 21.756 C 1.714 21.905 1.667 22.396 1.667 22.847 L 1.667 23.667 L 2.758 23.667 L 3.849 23.667 L 3.8 22.625 L 3.75 21.583 L 2.812 21.534 C 2.07 21.495 1.853 21.541 1.771 21.756 M 0 26.592 L 0 27.683 L 0.958 27.633 C 2.582 27.549 2.535 25.5 0.909 25.5 L 0 25.5 L 0 26.592 M 0 68.417 L 0 69.5 L 0.917 69.5 L 1.833 69.5 L 1.833 68.417 L 1.833 67.333 L 0.917 67.333 L 0 67.333 L 0 68.417 M 1.867 72.458 L 1.917 73.417 L 2.833 73.417 L 3.75 73.417 L 3.8 72.458 L 3.85 71.5 L 2.833 71.5 L 1.817 71.5 L 1.867 72.458 M 3.833 76.333 L 3.833 77.333 L 4.742 77.333 L 5.65 77.333 L 5.7 78.292 L 5.75 79.25 L 6.7 79.3 L 7.651 79.349 L 7.7 80.3 L 7.75 81.25 L 8.708 81.3 L 9.667 81.35 L 9.667 82.342 L 9.667 83.333 L 10.667 83.333 L 11.667 83.333 L 11.667 84.333 L 11.667 85.333 L 12.667 85.333 L 13.667 85.333 L 13.667 86.333 L 13.667 87.333 L 14.667 87.333 L 15.667 87.333 L 15.667 88.333 L 15.667 89.333 L 16.658 89.333 L 17.65 89.333 L 17.7 90.292 L 17.75 91.25 L 18.708 91.3 L 19.667 91.35 L 19.667 90.267 L 19.667 89.183 L 18.708 89.133 L 17.75 89.083 L 17.7 88.125 L 17.65 87.167 L 16.75 87.167 L 15.85 87.167 L 15.8 86.208 L 15.75 85.25 L 14.8 85.2 L 13.849 85.151 L 13.8 84.2 L 13.75 83.25 L 12.792 83.2 L 11.833 83.15 L 11.833 82.242 L 11.833 81.333 L 11.014 81.333 C 9.754 81.333 9.667 81.262 9.667 80.232 L 9.667 79.333 L 8.758 79.333 L 7.85 79.333 L 7.8 78.375 L 7.75 77.417 L 6.75 77.333 L 5.75 77.25 L 5.7 76.292 L 5.65 75.333 L 4.742 75.333 L 3.833 75.333 L 3.833 76.333 M 21.611 91.278 C 21.55 91.339 21.5 91.78 21.5 92.258 C 21.5 93.236 21.623 93.327 22.958 93.331 L 23.667 93.333 L 23.667 92.25 L 23.667 91.167 L 22.694 91.167 C 22.16 91.167 21.672 91.217 21.611 91.278 M 25.5 94.083 L 25.5 95 L 26.583 95 L 27.667 95 L 27.667 94.083 L 27.667 93.167 L 26.583 93.167 L 25.5 93.167 L 25.5 94.083" stroke-linecap="round"/>
</g>
		<g transform="matrix(1 0 0 1 -124.2209 -0.0248)" id="path4">
<path style="stroke: none; stroke-width: 1; stroke-dasharray: none; stroke-linecap: butt; stroke-dashoffset: 0; stroke-linejoin: miter; stroke-miterlimit: 4; is-custom-font: none; font-file-url: none; fill: rgb(124,108,44); fill-rule: evenodd; opacity: 1;" transform=" translate(-75.7791, -47.5)" d="M 75.749 47.5 C 75.749 73.671 75.768 84.377 75.792 71.292 C 75.815 58.206 75.815 36.794 75.792 23.708 C 75.768 10.623 75.749 21.329 75.749 47.5" stroke-linecap="round"/>
</g>
</g>
</g>
</svg>