<svg id="visual" viewBox="0 0 3840 2160" width="3840" height="2160" xmlns="http://www.w3.org/2000/svg" xmlns:xlink="http://www.w3.org/1999/xlink" version="1.1"><path d="M0 563L91.5 516.2C183 469.3 366 375.7 548.8 325.2C731.7 274.7 914.3 267.3 1097.2 296.2C1280 325 1463 390 1645.8 411.7C1828.7 433.3 2011.3 411.7 2194.2 426C2377 440.3 2560 490.7 2742.8 501.5C2925.7 512.3 3108.3 483.7 3291.2 472.8C3474 462 3657 469 3748.5 472.5L3840 476L3840 0L3748.5 0C3657 0 3474 0 3291.2 0C3108.3 0 2925.7 0 2742.8 0C2560 0 2377 0 2194.2 0C2011.3 0 1828.7 0 1645.8 0C1463 0 1280 0 1097.2 0C914.3 0 731.7 0 548.8 0C366 0 183 0 91.5 0L0 0Z" fill="#6198ff"></path><path d="M0 1211L91.5 1117.3C183 1023.7 366 836.3 548.8 832.7C731.7 829 914.3 1009 1097.2 1099C1280 1189 1463 1189 1645.8 1131.3C1828.7 1073.7 2011.3 958.3 2194.2 915.2C2377 872 2560 901 2742.8 976.7C2925.7 1052.3 3108.3 1174.7 3291.2 1181.8C3474 1189 3657 1081 3748.5 1027L3840 973L3840 474L3748.5 470.5C3657 467 3474 460 3291.2 470.8C3108.3 481.7 2925.7 510.3 2742.8 499.5C2560 488.7 2377 438.3 2194.2 424C2011.3 409.7 1828.7 431.3 1645.8 409.7C1463 388 1280 323 1097.2 294.2C914.3 265.3 731.7 272.7 548.8 323.2C366 373.7 183 467.3 91.5 514.2L0 561Z" fill="#3c80ff"></path><path d="M0 1599L91.5 1588.3C183 1577.7 366 1556.3 548.8 1560C731.7 1563.7 914.3 1592.3 1097.2 1613.8C1280 1635.3 1463 1649.7 1645.8 1646C1828.7 1642.3 2011.3 1620.7 2194.2 1609.8C2377 1599 2560 1599 2742.8 1627.8C2925.7 1656.7 3108.3 1714.3 3291.2 1710.8C3474 1707.3 3657 1642.7 3748.5 1610.3L3840 1578L3840 971L3748.5 1025C3657 1079 3474 1187 3291.2 1179.8C3108.3 1172.7 2925.7 1050.3 2742.8 974.7C2560 899 2377 870 2194.2 913.2C2011.3 956.3 1828.7 1071.7 1645.8 1129.3C1463 1187 1280 1187 1097.2 1097C914.3 1007 731.7 827 548.8 830.7C366 834.3 183 1021.7 91.5 1115.3L0 1209Z" fill="#0066ff"></path><path d="M0 1902L91.5 1905.5C183 1909 366 1916 548.8 1912.3C731.7 1908.7 914.3 1894.3 1097.2 1883.7C1280 1873 1463 1866 1645.8 1873.2C1828.7 1880.3 2011.3 1901.7 2194.2 1898C2377 1894.3 2560 1865.7 2742.8 1876.5C2925.7 1887.3 3108.3 1937.7 3291.2 1959.3C3474 1981 3657 1974 3748.5 1970.5L3840 1967L3840 1576L3748.5 1608.3C3657 1640.7 3474 1705.3 3291.2 1708.8C3108.3 1712.3 2925.7 1654.7 2742.8 1625.8C2560 1597 2377 1597 2194.2 1607.8C2011.3 1618.7 1828.7 1640.3 1645.8 1644C1463 1647.7 1280 1633.3 1097.2 1611.8C914.3 1590.3 731.7 1561.7 548.8 1558C366 1554.3 183 1575.7 91.5 1586.3L0 1597Z" fill="#0059dd"></path><path d="M0 2161L91.5 2161C183 2161 366 2161 548.8 2161C731.7 2161 914.3 2161 1097.2 2161C1280 2161 1463 2161 1645.8 2161C1828.7 2161 2011.3 2161 2194.2 2161C2377 2161 2560 2161 2742.8 2161C2925.7 2161 3108.3 2161 3291.2 2161C3474 2161 3657 2161 3748.5 2161L3840 2161L3840 1965L3748.5 1968.5C3657 1972 3474 1979 3291.2 1957.3C3108.3 1935.7 2925.7 1885.3 2742.8 1874.5C2560 1863.7 2377 1892.3 2194.2 1896C2011.3 1899.7 1828.7 1878.3 1645.8 1871.2C1463 1864 1280 1871 1097.2 1881.7C914.3 1892.3 731.7 1906.7 548.8 1910.3C366 1914 183 1907 91.5 1903.5L0 1900Z" fill="#004cbb"></path></svg>